
 
http://www.imdb.com/title/tt1905041/



Plot: Agent Luke Hobbs enlists Dominic Toretto and his team to bring down former Special Ops soldier Owen Shaw, leader of a unit specializing in vehicular warfare. 



Director:
 Justin Lin 

Writers:
 Chris Morgan (screenplay), Gary Scott Thompson (characters) 

Stars:
 Dwayne Johnson, Vin Diesel, Paul Walker

Genres:
  Action |  Crime |  Thriller 

Country:
 USA 

Language:
 English 





Format                                   : AVI
Format/Info                              : Audio Video Interleave
File size                                : 1.97 GiB
Duration                                 : 2h 0mn
Overall bit rate                         : 2 332 Kbps
Writing application                      : VirtualDubMod 1.5.10.2 (build 2542/release)
Writing library                          : VirtualDub build 32842/release

Video
ID                                       : 0
Format                                   : MPEG-4 Visual
Format profile                           : Advanced Simple@L5
Format settings, BVOP                    : 1
Format settings, QPel                    : No
Format settings, GMC                     : No warppoints
Format settings, Matrix                  : Default (H.263)
Muxing mode                              : Packed bitstream
Codec ID                                 : XVID
Codec ID/Hint                            : XviD
Duration                                 : 2h 0mn
Bit rate                                 : 2 120 Kbps
Width                                    : 680 pixels
Height                                   : 284 pixels
Display aspect ratio                     : 2.40:1
Frame rate                               : 50.000 fps
Color space                              : YUV
Chroma subsampling                       : 4:2:0
Bit depth                                : 8 bits
Scan type                                : Progressive
Compression mode                         : Lossy
Bits/(Pixel*Frame)                       : 0.220
Stream size                              : 1.79 GiB (91%)
Writing library                          : XviD 64

Audio
ID                                       : 1
Format                                   : AC-3
Format/Info                              : Audio Coding 3
Mode extension                           : CM (complete main)
Format settings, Endianness              : Big
Codec ID                                 : 2000
Duration                                 : 2h 0mn
Bit rate mode                            : Constant
Bit rate                                 : 192 Kbps
Channel(s)                               : 2 channels
Channel positions                        : Front: L R
Sampling rate                            : 48.0 KHz
Bit depth                                : 16 bits
Compression mode                         : Lossy
Stream size                              : 166 MiB (8%)
Alignment                                : Split accross interleaves
Interleave, duration                     : 20 ms (1.00 video frame)
Interleave, preload duration             : 500 ms



info

 
http://addpix.net/viewer.php?file=59845021801725213744.png



screens




    	http://addpix.net/viewer.php?file=13285372921922905196.jpg
    	http://addpix.net/viewer.php?file=22688859564791675524.jpg
    	http://addpix.net/viewer.php?file=09211734454741512027.jpg
    	http://addpix.net/viewer.php?file=44760186168952294297.jpg
    	http://addpix.net/viewer.php?file=48656450003748058079.jpg
    	http://addpix.net/viewer.php?file=32363993450968665089.jpg